<?xml version="1.0" encoding="utf-8"?>
<!-- Generator: Adobe Illustrator 25.0.1, SVG Export Plug-In . SVG Version: 6.00 Build 0)  -->
<svg version="1.1" id="Capa_1" xmlns="http://www.w3.org/2000/svg" xmlns:xlink="http://www.w3.org/1999/xlink" x="0px" y="0px"
	 viewBox="0 0 512 512" style="enable-background:new 0 0 512 512;" xml:space="preserve">
<style type="text/css">
	.st0{fill:#FFFFFF;}
	.st1{fill:#2DAB61;}
	.st2{fill:#D35515;}
</style>
<circle class="st0" cx="253.35" cy="252.84" r="229.63"/>
<g>
	<path class="st1" d="M192.43,239.22c-5.26-5.81-7.98-13.09-7.96-20.43c-0.01-7.34,2.71-14.62,7.96-20.43l52.73-52.73
		c11.89-11.89,11.89-31.18,0-43.07c-11.89-11.89-31.18-11.89-43.07,0l-94.1,94.1c-0.21,0.2-0.45,0.33-0.65,0.53
		c-5.96,5.96-8.93,13.78-8.91,21.59c-0.02,7.81,2.95,15.63,8.91,21.59c0.2,0.2,0.45,0.34,0.65,0.53l94.1,94.1
		c11.89,11.89,31.18,11.89,43.07,0c11.89-11.89,11.89-31.18,0-43.07L192.43,239.22z"/>
	<path class="st2" d="M329.75,307.32c5.26-5.81,7.98-13.09,7.96-20.43c0.01-7.34-2.71-14.62-7.96-20.43l-52.73-52.73
		c-11.89-11.89-11.89-31.18,0-43.07c11.89-11.89,31.18-11.89,43.07,0l94.1,94.1c0.21,0.2,0.45,0.33,0.65,0.53
		c5.96,5.96,8.93,13.78,8.91,21.59c0.02,7.81-2.95,15.63-8.91,21.59c-0.2,0.2-0.45,0.34-0.65,0.53l-94.1,94.1
		c-11.89,11.89-31.18,11.89-43.07,0c-11.89-11.89-11.89-31.18,0-43.07L329.75,307.32z"/>
</g>
</svg>
