<?xml version="1.0" encoding="utf-8"?>
<!-- Generator: Adobe Illustrator 25.0.1, SVG Export Plug-In . SVG Version: 6.00 Build 0)  -->
<svg version="1.1" id="Capa_1" xmlns="http://www.w3.org/2000/svg" xmlns:xlink="http://www.w3.org/1999/xlink" x="0px" y="0px"
	 viewBox="0 0 800 185.36" style="enable-background:new 0 0 800 185.36;" xml:space="preserve">
<style type="text/css">
	.st0{fill:#FFFFFF;}
	.st1{fill:#2DAB61;}
	.st2{fill:#D35515;}
</style>
<g>
	<path class="st0" d="M281.9,114.09h-12.2v-4.63h-0.15c-1.08,1.78-4.17,6.02-12.81,6.02c-12.97,0-21.46-10.04-21.46-22.93
		c0-14.51,10.34-22.77,21.23-22.77c7.56,0,11.19,3.71,12.58,5.09V56.97h12.81V114.09z M258.82,103.52c8.03,0,10.96-6.56,10.96-11.04
		c0-5.17-3.71-10.73-10.81-10.73c-7.41,0-10.88,5.79-10.88,10.73C248.09,99.12,252.8,103.52,258.82,103.52z"/>
	<path class="st0" d="M332.47,100.66c-2.08,4.79-5.09,8.49-8.72,10.96c-3.55,2.55-7.8,3.86-12.2,3.86
		c-12.27,0-22.69-9.96-22.69-22.7c0-11.96,9.42-23,22.46-23s22.62,10.34,22.62,23.39c0,1.7-0.15,2.39-0.31,3.4h-32.11
		c0.77,5.09,5.02,8.11,10.04,8.11c3.94,0,6.02-1.78,7.8-4.01H332.47z M321.12,87.92c-0.54-2.55-3.09-7.33-9.73-7.33
		s-9.19,4.79-9.73,7.33H321.12z"/>
	<path class="st0" d="M341.04,71.25H353v4.55h0.15c1.31-2.08,4.01-6.02,11.66-6.02c4.09,0,8.65,1.7,10.96,3.71
		c2.32,2.01,4.94,5.4,4.94,13.82v26.79H367.9V90.7c0-3.01,0-8.88-6.72-8.88c-7.33,0-7.33,6.33-7.33,8.95v23.31h-12.81V71.25z"/>
	<path class="st0" d="M402.64,66.7h-12.81v-9.73h12.81V66.7z M402.64,114.09h-12.81V71.25h12.81V114.09z"/>
	<path class="st0" d="M430.12,83.29c-0.08-0.93-0.23-3.24-4.01-3.24c-2.7,0-3.63,1.7-3.63,2.86c0,2.32,3.17,3.63,6.56,4.63
		c7.26,2.01,14.98,4.17,14.98,13.43c0,9.03-7.95,14.59-17.45,14.59c-6.48,0-16.29-2.93-17.45-14.2h12.74
		c0.54,3.94,4.32,3.94,4.86,3.94c2.16,0,4.48-1.24,4.48-3.32c0-3.32-3.17-3.71-11.35-6.87c-5.56-1.78-10.19-5.4-10.19-11.19
		c0-8.49,7.72-14.13,16.6-14.13c5.63,0,15.36,2.24,16.44,13.51H430.12z"/>
	<path class="st0" d="M494.82,108.92c0,6.41-0.46,10.5-2.55,14.13c-3.32,5.4-11.12,10.11-21.69,10.11
		c-14.9,0-20.53-8.96-21.38-15.05h14.82c1.85,4.25,6.64,4.25,7.49,4.25c1.62,0,10.42-0.15,10.42-11.66v-1.31h-0.15
		c-1.31,2.47-5.02,6.1-11.73,6.1c-11.66,0-21.61-8.8-21.61-22.54c0-14.67,10.5-23.08,21.61-23.08c4.79,0,9.49,1.7,11.81,5.4H482
		v-4.01h12.81V108.92z M471.5,103.52c6.17,0,10.5-4.48,10.5-10.65c0-6.87-4.71-11.04-10.42-11.04c-5.48,0-10.34,4.4-10.34,10.65
		C461.24,99.35,466.18,103.52,471.5,103.52z"/>
	<path class="st0" d="M547.77,114.09h-12.81v-4.63h-0.15c-2.16,4.17-7.49,6.1-12.5,6.1c-13.59,0-21.54-10.65-21.54-22.93
		c0-14.05,10.11-22.85,21.54-22.85c7.02,0,10.96,3.4,12.5,6.02h0.15v-4.55h12.81V114.09z M524.23,103.6
		c8.03,0,10.73-6.79,10.73-10.96c0-5.17-3.55-10.88-10.81-10.88c-7.33,0-10.58,6.18-10.58,11.04
		C513.58,96.8,516.51,103.6,524.23,103.6z"/>
	<path class="st0" d="M596.8,114.09h-12.12v-4.55h-0.16c-2.62,5.48-7.87,5.94-11.12,5.94c-2.62,0-8.8-0.62-12.58-5.4
		c-3.4-4.25-3.86-7.33-3.86-13.2V71.25h12.81v23.7c0,2.93,0,8.57,6.87,8.57c3.71,0,7.33-1.93,7.33-8.72V71.25h12.81V114.09z"/>
	<path class="st0" d="M605.99,71.25h12.04v4.55h0.15c1.08-2.08,3.32-6.02,10.73-6.02v12.89c-5.94,0.15-10.11,1.39-10.11,7.87v23.54
		h-12.81V71.25z"/>
	<path class="st0" d="M653.62,69.86c15.59,0,23.08,12.27,23.08,22.77c0,10.5-7.49,22.77-23.08,22.77
		c-15.59,0-23.08-12.27-23.08-22.77C630.54,82.14,638.02,69.86,653.62,69.86z M653.62,103.44c5.56,0,10.27-4.55,10.27-10.81
		s-4.71-10.81-10.27-10.81c-5.56,0-10.27,4.55-10.27,10.81S648.06,103.44,653.62,103.44z"/>
	<path class="st0" d="M683.96,71.25h11.96v4.55h0.15c1.31-2.08,4.01-6.02,11.66-6.02c4.09,0,8.65,1.7,10.96,3.71
		c2.32,2.01,4.94,5.4,4.94,13.82v26.79h-12.81V90.7c0-3.01,0-8.88-6.72-8.88c-7.33,0-7.33,6.33-7.33,8.95v23.31h-12.81V71.25z"/>
	<path class="st0" d="M746.95,114.09h-13.35v-13.12h13.35V114.09z"/>
</g>
<circle class="st0" cx="114.26" cy="92.62" r="89.04"/>
<g>
	<path class="st1" d="M90.63,87.34c-2.04-2.25-3.09-5.08-3.09-7.92c-0.01-2.85,1.05-5.67,3.09-7.92l20.45-20.45
		c4.61-4.61,4.61-12.09,0-16.7c-4.61-4.61-12.09-4.61-16.7,0L57.89,70.83c-0.08,0.08-0.17,0.13-0.25,0.21
		c-2.31,2.31-3.46,5.34-3.46,8.37c-0.01,3.03,1.14,6.06,3.46,8.37c0.08,0.08,0.17,0.13,0.25,0.21l36.49,36.49
		c4.61,4.61,12.09,4.61,16.7,0c4.61-4.61,4.61-12.09,0-16.7L90.63,87.34z"/>
	<path class="st2" d="M143.88,113.74c2.04-2.25,3.09-5.08,3.09-7.92c0.01-2.85-1.05-5.67-3.09-7.92l-20.45-20.45
		c-4.61-4.61-4.61-12.09,0-16.7c4.61-4.61,12.09-4.61,16.7,0l36.49,36.49c0.08,0.08,0.17,0.13,0.25,0.21
		c2.31,2.31,3.46,5.34,3.46,8.37c0.01,3.03-1.14,6.06-3.46,8.37c-0.08,0.08-0.17,0.13-0.25,0.21l-36.49,36.49
		c-4.61,4.61-12.09,4.61-16.7,0s-4.61-12.09,0-16.7L143.88,113.74z"/>
</g>
</svg>
